#N canvas 0 0 450 300 10;
#X obj 10 60 inlet;
#X obj 130 60 r \$0-read;
#X obj 130 90 faust-control \$0;
#X obj 130 120 s \$0-write;
#X obj 10 120 r \$0-in;
#X obj 10 150 multipink~;
#X obj 10 180 s \$0-out;
#X obj 70 210 outlet~;
#X obj 130 210 outlet~;
#X obj 190 210 outlet~;
#X obj 250 210 outlet~;
#X obj 10 210 outlet;
#X connect 0 0 2 0;
#X connect 1 0 2 0;
#X connect 2 0 3 0;
#X connect 5 0 6 0;
#X connect 0 0 11 0;
#X connect 4 0 5 0;
#X connect 5 1 7 0;
#X connect 5 2 8 0;
#X connect 5 3 9 0;
#X connect 5 4 10 0;
#X text 0 10 Generated Wed May 10 23:16:24 2023 by faust2pd v2.16. See http://faust.grame.fr and http://purelang.bitbucket.org.;
