#N canvas 0 0 450 300 10;
#X obj 70 60 inlet~;
#X obj 130 60 inlet~;
#X obj 190 60 inlet~;
#X obj 250 60 inlet~;
#X obj 10 60 inlet;
#X obj 310 60 r \$0-read;
#X obj 310 90 faust-control \$0;
#X obj 310 120 s \$0-write;
#X obj 10 120 r \$0-in;
#X obj 10 150 bamodulex~;
#X obj 10 180 s \$0-out;
#X obj 70 210 outlet~;
#X obj 130 210 outlet~;
#X obj 190 210 outlet~;
#X obj 250 210 outlet~;
#X obj 10 210 outlet;
#X connect 4 0 6 0;
#X connect 5 0 6 0;
#X connect 6 0 7 0;
#X connect 9 0 10 0;
#X connect 4 0 15 0;
#X connect 8 0 9 0;
#X connect 0 0 9 1;
#X connect 1 0 9 2;
#X connect 2 0 9 3;
#X connect 3 0 9 4;
#X connect 9 1 11 0;
#X connect 9 2 12 0;
#X connect 9 3 13 0;
#X connect 9 4 14 0;
#X text 0 10 Generated Wed May 10 23:32:07 2023 by faust2pd v2.16. See http://faust.grame.fr and http://purelang.bitbucket.org.;
